<?xml version="1.0" encoding="UTF-8" standalone="no"?>
<!-- Created with Inkscape (http://www.inkscape.org/) -->

<svg
   xmlns:dc="http://purl.org/dc/elements/1.1/"
   xmlns:cc="http://creativecommons.org/ns#"
   xmlns:rdf="http://www.w3.org/1999/02/22-rdf-syntax-ns#"
   xmlns:svg="http://www.w3.org/2000/svg"
   xmlns="http://www.w3.org/2000/svg"
   xmlns:sodipodi="http://sodipodi.sourceforge.net/DTD/sodipodi-0.dtd"
   xmlns:inkscape="http://www.inkscape.org/namespaces/inkscape"
   width="26.458323mm"
   height="26.458353mm"
   viewBox="0 0 26.458323 26.458353"
   version="1.1"
   id="svg12349"
   sodipodi:docname="heart.svg"
   inkscape:version="0.92.4 (5da689c313, 2019-01-14)">
  <defs
     id="defs12343" />
  <sodipodi:namedview
     id="base"
     pagecolor="#ffffff"
     bordercolor="#666666"
     borderopacity="1.0"
     inkscape:pageopacity="0.0"
     inkscape:pageshadow="2"
     inkscape:zoom="3.6203867"
     inkscape:cx="65.953708"
     inkscape:cy="65.741282"
     inkscape:document-units="mm"
     inkscape:current-layer="layer1"
     showgrid="false"
     inkscape:window-width="1920"
     inkscape:window-height="1051"
     inkscape:window-x="-9"
     inkscape:window-y="-9"
     inkscape:window-maximized="1"
     fit-margin-top="0"
     fit-margin-left="0"
     fit-margin-right="0"
     fit-margin-bottom="0" />
  <metadata
     id="metadata12346">
    <rdf:RDF>
      <cc:Work
         rdf:about="">
        <dc:format>image/svg+xml</dc:format>
        <dc:type
           rdf:resource="http://purl.org/dc/dcmitype/StillImage" />
        <dc:title></dc:title>
      </cc:Work>
    </rdf:RDF>
  </metadata>
  <g
     inkscape:label="Layer 1"
     inkscape:groupmode="layer"
     id="layer1"
     transform="translate(-57.074409,-199.10416)">
    <rect
       style="opacity:1;fill:none;fill-opacity:1;stroke:none;stroke-width:14.65505695;stroke-linecap:round;stroke-miterlimit:4;stroke-dasharray:none;stroke-opacity:1"
       id="rect12187"
       width="26.458323"
       height="26.458323"
       x="57.074409"
       y="199.10419"
       inkscape:export-filename="C:\Repos\coronacode\heart.svg.png"
       inkscape:export-xdpi="90"
       inkscape:export-ydpi="90" />
    <g
       id="g12223"
       transform="matrix(4.3439964,0,0,4.3439964,1458.707,-116.75989)"
       inkscape:export-filename="C:\Repos\coronacode\heart.svg.png"
       inkscape:export-xdpi="90"
       inkscape:export-ydpi="90">
      <g
         transform="matrix(0.78432282,-0.21015867,0.20560245,0.76731877,-84.150211,-49.517328)"
         id="g12185">
        <path
           style="opacity:1;fill:#ff5179;fill-opacity:1;stroke:none;stroke-width:5;stroke-linecap:round;stroke-miterlimit:4;stroke-dasharray:none;stroke-opacity:1"
           id="path12179"
           d="m -322.32967,77.58722 c -0.004,-0.04213 -0.005,-0.08456 -0.0119,-0.126386 0,-0.0076 -0.003,0.03013 -0.004,0.02283 -0.058,-0.165092 -0.0871,-0.391011 -0.11755,-0.564287 -0.0471,-0.273389 -0.059,-0.550691 -0.064,-0.827495 -0.0281,-0.173371 -0.0418,-0.393639 -0.0527,-0.585232 -0.0114,-0.218956 -0.013,-0.438229 -0.0138,-0.657423 0,-0.191246 -2e-5,-0.382493 1.4e-4,-0.573736 1.3e-4,-0.185439 1.6e-4,-0.370877 1.8e-4,-0.556316 0.0138,-0.115146 0.018,-0.231783 0.0411,-0.345437 0.069,-0.341177 0.27541,-0.785431 0.54568,-1.004633 0.15229,-0.123529 0.32885,-0.213707 0.49329,-0.320559 0.15264,-0.03771 0.30178,-0.09477 0.45794,-0.11312 0.46992,-0.05521 0.89691,0.122328 1.2777,0.37832 0.31276,0.2569 0.43444,0.429011 0.62735,0.665538 0.26202,0.354883 0.35557,0.773446 0.38701,1.203777 0.0109,0.218874 0.009,0.438098 0.008,0.657159 0,0.188476 0,0.376952 -0.003,0.565431 0.0111,0.295613 -0.0111,0.587068 -0.0725,0.876818 -0.009,0.03715 -0.018,0.0743 -0.027,0.11144 -0.46421,1.908797 -3.16365,1.2523 -2.69944,-0.656495 v 0 c 0.006,-0.02381 0.0116,-0.04763 0.0175,-0.07145 0.0238,-0.04456 0.0124,-0.02694 0.003,0.114131 -0.003,0.03139 0,-0.06292 0,-0.09438 2e-5,-0.06481 5e-5,-0.123886 8e-5,-0.188621 2e-5,-0.03157 5e-5,-0.06314 8e-5,-0.09471 2.1e-4,-0.190613 0,-0.381224 0.003,-0.571838 0,-0.155887 0.003,-0.311817 -0.003,-0.467675 -2.4e-4,-0.0097 -0.003,-0.01961 0,-0.02918 0,-0.0064 0.003,0.0067 0.0135,0.03768 0.0368,0.100383 0.0845,0.19713 0.15362,0.279553 0.0191,0.02059 0.0763,0.08279 0.0576,0.06175 -0.0655,-0.07379 -0.21286,-0.220375 -0.26106,-0.303726 -0.0225,-0.03878 0.059,0.06775 0.0927,0.09725 0.0412,0.03606 0.0875,0.06585 0.13124,0.09878 -0.0154,-0.01201 -0.0666,-0.03947 -0.0482,-0.03313 0.10454,0.03595 0.20535,0.08244 0.31054,0.11643 0.0286,0.0092 0.0592,0.01233 0.0893,0.01275 0.3342,0.0047 0.24696,0.0011 0.58759,-0.103063 0.12335,-0.08907 0.25487,-0.167791 0.37007,-0.267206 0.0476,-0.04104 0.081,-0.09666 0.11364,-0.150299 0.1008,-0.165489 0.10102,-0.23745 0.11052,-0.460986 -3e-5,0.186031 -6e-5,0.372062 -1.9e-4,0.558094 -1.6e-4,0.187108 0,0.374216 -1.3e-4,0.561324 0,0.171344 0,0.342757 0.01,0.513942 0.0122,0.231368 0.0422,0.460955 0.0566,0.692171 0.003,0.134589 0.003,0.269828 0.0241,0.403143 0.0477,0.288634 0.13976,0.5695 0.15989,0.862632 0.19548,1.954681 -2.56886,2.231115 -2.76434,0.276434 z"
           inkscape:connector-curvature="0" />
        <path
           style="opacity:1;fill:#ff5179;fill-opacity:1;stroke:none;stroke-width:5;stroke-linecap:round;stroke-miterlimit:4;stroke-dasharray:none;stroke-opacity:1"
           id="path12181"
           d="m -321.06057,76.293704 c 0.18084,-0.143812 0.34171,-0.314098 0.5285,-0.466212 0.13621,-0.114115 0.2902,-0.22616 0.41402,-0.331676 0.16169,-0.1216 -0.009,-0.019 0.20175,-0.196564 0.14628,-0.123397 0.18534,-0.148728 0.303,-0.230209 -0.40921,0.324339 0.39722,-0.366673 0.15176,-0.152974 -0.0275,0.02392 -0.0525,0.05057 -0.0787,0.07585 0.16335,-0.226874 -0.0912,0.167961 -0.0621,0.104432 0.0684,-0.14926 0.18399,-0.294635 0.28223,-0.42522 0.006,-0.02768 -0.11028,0.158213 -0.0844,0.117544 0.05,-0.07796 0.0999,-0.155927 0.14989,-0.23389 -0.0135,0.0013 -0.0314,0.04726 -0.0262,0.03399 0.0101,-0.02506 0.0254,-0.04755 0.0381,-0.07132 -0.037,0.04543 -0.0534,0.149458 -0.0471,0.02947 0.003,0.02793 0.003,-0.158609 0.004,-0.118983 0.008,0.145534 -0.01,0.229108 0.0455,0.367933 0.0877,0.220561 0.22005,0.377774 0.11197,0.244784 0.008,0.01101 0.034,0.04243 0.0241,0.03304 -0.13288,-0.126291 -0.23085,-0.284692 -0.33801,-0.431202 -0.0233,-0.03172 0.0441,0.06511 0.0661,0.09766 0.23521,0.282914 0.55607,0.400979 0.9212,0.372237 0.2708,-0.06398 0.10641,-0.01212 0.47569,-0.202753 -1.55019,1.20658 -3.25657,-0.985747 -1.70635,-2.192329 v 0 c 0.51618,-0.300379 0.27141,-0.20352 0.71514,-0.334799 0.0708,-0.01098 0.14082,-0.02995 0.21241,-0.03291 0.522,-0.02159 0.89038,0.0764 1.3026,0.40105 0.0741,0.05835 0.13491,0.131794 0.20238,0.197691 0.0516,0.06756 0.10406,0.134429 0.1547,0.202695 0.0225,0.03029 -0.0974,-0.114808 -0.0702,-0.08875 0.0307,0.02933 0.0553,0.06449 0.0805,0.09863 0.0103,0.01402 -0.0222,-0.02725 -0.0359,-0.03811 -0.0116,-0.0093 0.0201,0.02233 0.0301,0.03351 0.0456,0.05048 0.0913,0.100952 0.13695,0.151427 0.36409,0.45966 0.48397,0.873466 0.4378,1.446942 -0.0303,0.371592 -0.0968,0.739386 -0.27337,1.072703 -0.0274,0.05119 -0.17531,0.345887 -0.21129,0.356034 -0.0449,0.01267 0.0917,-0.162605 0.0688,-0.121912 -0.13782,0.245507 -0.0678,0.134755 -0.22301,0.354235 0.0135,-0.02045 0.0204,-0.04745 0.0406,-0.06139 0.0198,-0.01376 -0.045,0.08442 -0.0397,0.06078 0.007,-0.03258 0.0634,-0.117385 0.046,-0.08893 -0.0931,0.151857 -0.16484,0.309422 -0.28975,0.438192 -0.18833,0.206639 -0.14052,0.169413 -0.34319,0.337307 -0.0243,0.02021 0.0889,-0.0904 0.0662,-0.06826 -0.0601,0.05862 -0.11531,0.122211 -0.17759,0.178472 -0.0558,0.05045 -0.11745,0.0941 -0.17618,0.141155 -0.0228,0.01585 -0.0855,0.06967 -0.0687,0.04753 0.0277,-0.03643 0.13282,-0.126114 0.10075,-0.09342 -0.0772,0.07871 -0.14938,0.16334 -0.23625,0.23206 -0.18965,0.169003 -0.36719,0.299392 -0.55493,0.453004 -0.14187,0.109895 -0.29621,0.29432 -0.46173,0.410763 -1.49151,1.278432 -3.29949,-0.830876 -1.80798,-2.109311 z"
           inkscape:connector-curvature="0" />
      </g>
      <path
         inkscape:connector-curvature="0"
         d="m -319.8538,78.739528 c -0.11834,-0.132945 -0.25834,-0.245085 -0.4001,-0.352023 -0.10641,-0.09343 -0.22532,-0.171623 -0.32162,-0.275854 -0.0759,-0.07127 -0.16596,-0.121945 -0.24637,-0.187236 -0.0748,-0.06864 -0.1609,-0.121459 -0.24264,-0.181352 -0.0939,-0.06206 -0.14596,-0.157107 -0.21178,-0.243854 -0.076,-0.09912 -0.15482,-0.192601 -0.21352,-0.303621 -0.0453,-0.08115 -0.0604,-0.174494 -0.0945,-0.259742 -0.006,-0.01172 -0.0379,-0.06271 -0.0435,-0.07139 -0.0626,-0.09222 -0.12691,-0.180743 -0.17614,-0.281413 -0.0779,-0.08412 -0.13159,-0.184698 -0.17729,-0.288819 -0.051,-0.125058 -0.0866,-0.255549 -0.12226,-0.38558 -0.0347,-0.129643 -0.0693,-0.259332 -0.10422,-0.38893 -0.0338,-0.127006 -0.0678,-0.253951 -0.10204,-0.380826 -0.0461,-0.137156 -0.0363,-0.282448 -0.0474,-0.424572 -0.0276,-0.133749 -0.021,-0.263683 0.0106,-0.395676 0.009,-0.101652 0.0337,-0.200525 0.0483,-0.301659 0.005,-0.12049 0.0415,-0.232753 0.0898,-0.341992 0.046,-0.105414 0.10566,-0.204626 0.18035,-0.29216 0.0845,-0.07062 0.15352,-0.155148 0.23242,-0.231069 0.10235,-0.09051 0.23052,-0.13579 0.35823,-0.177237 0.12745,-0.04653 0.26349,-0.04282 0.3966,-0.03214 0.11344,-0.0027 0.21714,0.03441 0.32371,0.06655 0.0947,0.02861 0.16931,0.102055 0.25993,0.137255 0.0924,0.05085 0.16703,0.125602 0.25073,0.18865 0.0866,0.08143 0.16181,0.174222 0.21973,0.278031 0.0498,0.103973 0.10382,0.205101 0.14674,0.312336 0.046,0.12394 0.0806,0.251714 0.11555,0.379099 0.0341,0.12718 0.0682,0.254351 0.10211,0.381573 0.0302,0.124318 0.075,0.245267 0.0834,0.373588 -0.0161,0.114081 0.003,0.09678 -0.23615,0.05862 -0.0143,-0.0023 -0.0754,-0.200716 -0.0825,-0.225188 -0.0367,-0.136913 -0.0594,-0.279922 -0.0631,-0.421663 -0.002,-0.134649 0.0215,-0.26625 0.0588,-0.394844 0.0145,-0.10241 0.0626,-0.195294 0.0867,-0.294616 0.0195,-0.04779 0.0223,-0.101382 0.0451,-0.14812 0.0223,-0.04579 0.0576,-0.08124 0.0767,-0.12792 0.0437,-0.09444 0.0879,-0.188185 0.15057,-0.271629 0.0344,-0.05043 0.0953,-0.07171 0.13646,-0.1142 0.004,-0.0041 0.004,-0.01089 0.007,-0.0154 0.0222,-0.03159 0.045,-0.05439 0.0711,-0.08293 0.10249,-0.09625 0.23451,-0.144211 0.36549,-0.187598 0.12676,-0.03935 0.2553,-0.07276 0.38362,-0.106724 0.14221,-0.04204 0.26344,0.01579 0.39161,0.06766 0.10387,0.03527 0.21002,0.06452 0.31257,0.103901 0.0833,0.06292 0.18139,0.09566 0.27445,0.139277 0.12079,0.05798 0.19855,0.167447 0.2736,0.273814 0.0781,0.06649 0.1531,0.129434 0.2134,0.213377 0.0708,0.113644 0.10796,0.242948 0.14502,0.370424 0.0426,0.147348 0.0831,0.267221 0.0729,0.42311 -0.007,0.123145 -0.0375,0.241278 -0.0709,0.359355 -0.0328,0.103427 -0.0676,0.207402 -0.0905,0.313744 -0.0201,0.103804 -0.0703,0.196565 -0.11203,0.292585 -0.0141,0.10199 -0.0735,0.1883 -0.1104,0.282092 -0.0444,0.109598 -0.0894,0.218382 -0.13691,0.326704 -0.0218,0.100956 -0.0842,0.181152 -0.13438,0.267992 -0.0379,0.09494 -0.0881,0.186434 -0.12438,0.282343 -0.0403,0.09594 -0.0816,0.191232 -0.11699,0.289206 -0.0422,0.117839 -0.10818,0.224258 -0.17193,0.331232 -0.0471,0.119819 -0.13316,0.179781 -0.21858,0.266321 -0.0753,0.06763 -0.12852,0.153045 -0.19142,0.231205 -0.0551,0.08469 -0.13323,0.147854 -0.20452,0.217407 -0.0923,0.06583 -0.15446,0.154085 -0.21913,0.244234 -0.086,0.08927 -0.17141,0.182074 -0.27145,0.256273 -0.0719,0.0499 -0.13381,0.106646 -0.18779,0.174733 -0.0808,0.07745 -0.14912,0.165628 -0.23089,0.241934 -0.0762,0.056 -0.0412,0.0297 -0.10523,0.0786 -0.13151,0.100254 -0.2733,-0.08573 -0.14176,-0.185987 v 0 c 0.0619,-0.04713 0.0323,-0.0258 0.0885,-0.06455 0.074,-0.06707 0.13203,-0.148546 0.20631,-0.215437 0.0674,-0.08474 0.14515,-0.156479 0.2339,-0.218829 0.0821,-0.0568 0.1458,-0.136817 0.21892,-0.203721 0.0736,-0.100886 0.14447,-0.201392 0.24708,-0.276306 0.0654,-0.06173 0.13509,-0.11931 0.18466,-0.195912 0.0692,-0.08391 0.12666,-0.177571 0.20893,-0.250431 0.0706,-0.06803 0.14629,-0.123098 0.18179,-0.219512 0.0564,-0.09421 0.11512,-0.187492 0.1529,-0.291221 0.0365,-0.09978 0.078,-0.197318 0.11924,-0.295126 0.0435,-0.107147 0.0951,-0.211668 0.14162,-0.317185 0.0479,-0.07762 0.10032,-0.150544 0.12093,-0.242202 0.0475,-0.105963 0.0905,-0.213044 0.13435,-0.320714 0.0402,-0.09498 0.0941,-0.183799 0.11247,-0.286948 0.0362,-0.08234 0.0804,-0.160535 0.098,-0.249505 0.0251,-0.110429 0.0595,-0.218892 0.0937,-0.32663 0.0295,-0.104102 0.0572,-0.207679 0.063,-0.316481 0.0158,-0.116298 -0.0393,-0.225342 -0.0646,-0.337204 -0.0307,-0.103099 -0.059,-0.208538 -0.11263,-0.302508 -0.0556,-0.08632 -0.14966,-0.131706 -0.21275,-0.212417 -0.051,-0.07379 -0.10248,-0.154907 -0.18391,-0.197405 -0.0853,-0.04372 -0.18421,-0.06674 -0.25763,-0.131921 -0.10321,-0.04131 -0.21202,-0.06766 -0.31651,-0.105466 -0.0808,-0.03365 -0.15197,-0.0818 -0.24269,-0.05786 -0.12379,0.0329 -0.24782,0.06506 -0.37025,0.10273 -0.0934,0.03073 -0.18958,0.06195 -0.26723,0.124507 -0.0656,0.06958 -0.1197,0.14827 -0.20301,0.198914 -0.0581,0.06441 -0.0819,0.153367 -0.12328,0.228219 -0.0103,0.01975 -0.0193,0.04004 -0.0305,0.05915 -0.01,0.01652 -0.0269,0.02789 -0.0361,0.0447 -0.0218,0.03996 -0.021,0.08898 -0.0395,0.130197 -0.028,0.10059 -0.071,0.195823 -0.0882,0.299686 -0.008,0.02804 -0.0209,0.05478 -0.0266,0.08341 -0.0158,0.07941 -0.0198,0.163027 -0.023,0.243562 -0.001,0.119903 0.0264,0.242124 0.0536,0.358332 0.0118,0.044 0.0168,0.06269 0.0321,0.104259 0.003,0.01286 0.01,0.02493 0.0132,0.03775 0.002,0.0073 0.0156,0.01822 0.009,0.02133 -0.19806,0.0911 -0.19726,-0.0062 -0.19321,0.08047 -0.001,-0.111335 -0.0549,-0.216376 -0.0757,-0.324525 -0.0338,-0.126688 -0.0679,-0.253296 -0.1017,-0.379973 -0.0319,-0.119164 -0.0639,-0.238555 -0.10725,-0.354266 -0.0392,-0.09841 -0.0891,-0.190869 -0.1345,-0.286376 -0.041,-0.07601 -0.0969,-0.140936 -0.15547,-0.2039 -0.0702,-0.05291 -0.13411,-0.11265 -0.20637,-0.162341 -0.0797,-0.03827 -0.15251,-0.08879 -0.2325,-0.126878 -0.0912,-0.02861 -0.1772,-0.06133 -0.2751,-0.05703 -0.10195,-0.01 -0.20665,-0.01365 -0.30426,0.02167 -0.0946,0.03053 -0.19183,0.06072 -0.26986,0.124941 -0.075,0.06827 -0.13563,0.15143 -0.21629,0.214269 -0.0615,0.06877 -0.1066,0.150669 -0.14349,0.234534 -0.0412,0.08963 -0.0682,0.179858 -0.0717,0.279537 -0.0156,0.108583 -0.0418,0.213949 -0.0524,0.322997 -0.0264,0.109042 -0.0284,0.212161 -0.005,0.32316 0.01,0.127822 -9e-5,0.258551 0.0401,0.381938 0.034,0.127063 0.068,0.254129 0.10213,0.381174 0.0343,0.12908 0.0691,0.258037 0.10371,0.387056 0.032,0.119562 0.0642,0.239502 0.11139,0.354282 0.044,0.102669 0.10406,0.192444 0.17328,0.280019 0.0447,0.09355 0.10744,0.172996 0.16403,0.259393 0.0692,0.112296 0.098,0.226237 0.14698,0.346874 0.052,0.101055 0.12813,0.182206 0.19479,0.273543 0.0505,0.0701 0.0884,0.143852 0.16195,0.193964 0.085,0.06303 0.17533,0.118574 0.25376,0.190075 0.0857,0.07474 0.19124,0.125405 0.26988,0.209815 0.0839,0.09552 0.19746,0.159274 0.28952,0.246439 0.1476,0.112232 0.2947,0.228568 0.41835,0.367382 0.12091,0.112778 -0.0385,0.283812 -0.15948,0.17105 z"
         id="path12107"
         style="opacity:1;fill:#000000;fill-opacity:0.98039216;stroke:none;stroke-width:5;stroke-linecap:round;stroke-miterlimit:4;stroke-dasharray:none;stroke-opacity:1" />
      <path
         inkscape:connector-curvature="0"
         d="m -322.17024,74.662893 c 0.0353,-0.0068 0.0713,-0.0097 0.10689,-0.0153 0.0309,-0.0051 0.0613,-0.01289 0.0916,-0.0207 0.0275,-0.0072 0.0549,-0.01463 0.0824,-0.02204 0.0286,-0.0071 0.0542,-0.0226 0.0813,-0.03404 0.0376,-0.01526 0.0757,-0.02929 0.11438,-0.04171 0.0381,-0.01219 0.0768,-0.02276 0.1154,-0.03341 0.0278,-0.0075 0.0556,-0.01492 0.0835,-0.02235 0.0118,-0.003 0.0234,-0.0057 0.0344,-0.01086 0.0266,-0.01199 0.0436,0.02578 0.0173,0.03761 v 0 c -0.0133,0.0057 -0.0264,0.01017 -0.0406,0.01305 -0.0277,0.0074 -0.0555,0.01477 -0.0832,0.02227 -0.038,0.01037 -0.076,0.02091 -0.11359,0.03292 -0.0376,0.01203 -0.0745,0.02566 -0.11105,0.04046 -0.0288,0.01205 -0.0559,0.02878 -0.0865,0.03582 -0.0276,0.0074 -0.0551,0.0149 -0.0828,0.02214 -0.0316,0.0082 -0.0632,0.01639 -0.0955,0.02155 -0.0342,0.0053 -0.0686,0.0083 -0.10262,0.0144 -0.0282,0.0076 -0.0389,-0.03237 -0.0107,-0.03993 z"
         id="path12109"
         style="opacity:1;fill:#000000;fill-opacity:0.98039216;stroke:none;stroke-width:5;stroke-linecap:round;stroke-miterlimit:4;stroke-dasharray:none;stroke-opacity:1" />
      <path
         inkscape:connector-curvature="0"
         d="m -322.14755,74.400015 c 0.0299,-0.008 0.0597,-0.01599 0.0896,-0.02399 0.033,-0.0089 0.066,-0.01768 0.099,-0.02653 0.034,-0.0086 0.0677,-0.01896 0.0996,-0.03362 0.0323,-0.01818 0.0655,-0.03463 0.0967,-0.05454 0.031,-0.0257 0.0657,-0.04546 0.10114,-0.0641 0.0195,-0.01008 0.0397,-0.01922 0.0595,-0.02868 0.0264,-0.01257 0.0442,0.02474 0.0173,0.03745 v 0 c -0.0195,0.0093 -0.0389,0.0181 -0.0581,0.02794 -0.0345,0.01814 -0.068,0.03743 -0.0982,0.06238 -0.033,0.02097 -0.0677,0.03848 -0.1019,0.05736 -0.0341,0.01515 -0.0696,0.02693 -0.10585,0.03582 -0.033,0.0089 -0.066,0.01768 -0.099,0.02653 -0.0298,0.008 -0.0597,0.016 -0.0895,0.02399 -0.0282,0.0076 -0.0389,-0.03237 -0.0107,-0.03993 z"
         id="path12111"
         style="opacity:1;fill:#000000;fill-opacity:0.98039216;stroke:none;stroke-width:5;stroke-linecap:round;stroke-miterlimit:4;stroke-dasharray:none;stroke-opacity:1" />
      <path
         inkscape:connector-curvature="0"
         d="m -322.11479,74.025719 c 0.0343,-0.0025 0.0682,-0.0081 0.10191,-0.01463 0.034,-0.0024 0.0677,-0.0053 0.10129,-0.01106 0.0286,-0.0052 0.0567,-0.01231 0.0848,-0.01972 0.0335,-0.0089 0.067,-0.01798 0.1005,-0.02699 0.0355,-0.0098 0.0715,-0.0175 0.10557,-0.0316 0.0364,-0.01628 0.0703,-0.03711 0.10689,-0.05313 0.0219,-0.01012 0.0112,-0.0052 0.0323,-0.01498 0.0265,-0.01228 0.0439,0.02523 0.0173,0.03753 v 0 c -0.0215,0.0099 -0.0105,0.0048 -0.0332,0.01531 -0.0369,0.0161 -0.0709,0.03752 -0.1078,0.05351 -0.0358,0.01445 -0.0732,0.02335 -0.11047,0.03323 -0.0336,0.009 -0.0672,0.01813 -0.10075,0.02705 -0.0292,0.0077 -0.0586,0.01515 -0.0883,0.02045 -0.0333,0.0057 -0.0668,0.0091 -0.1005,0.0109 -0.0356,0.0069 -0.0716,0.01278 -0.10796,0.01531 -0.0292,0.0012 -0.031,-0.04004 -0.002,-0.04131 z"
         id="path12113"
         style="opacity:1;fill:#000000;fill-opacity:0.98039216;stroke:none;stroke-width:5;stroke-linecap:round;stroke-miterlimit:4;stroke-dasharray:none;stroke-opacity:1" />
      <path
         inkscape:connector-curvature="0"
         d="m -322.02742,73.617113 c 0.0356,-0.0022 0.0707,-0.0085 0.10556,-0.0156 0.0296,-0.0063 0.0589,-0.01382 0.0882,-0.02167 0.0302,-0.0081 0.0605,-0.01625 0.0907,-0.02437 0.0327,-0.0088 0.0656,-0.01761 0.0983,-0.02638 0.0303,-0.0056 0.0577,-0.01868 0.0854,-0.03159 0.0262,-0.01272 0.054,-0.02163 0.0818,-0.0299 0.0203,-0.0049 0.0394,-0.01074 0.0578,-0.02035 0.0259,-0.01346 0.0451,0.02321 0.0192,0.03666 v 0 c -0.0207,0.01073 -0.0423,0.01786 -0.065,0.02331 -0.026,0.0078 -0.0518,0.01606 -0.0763,0.0278 -0.0298,0.01389 -0.0596,0.02763 -0.0922,0.03403 -0.0328,0.0088 -0.0655,0.01756 -0.0983,0.02637 -0.0302,0.0081 -0.0605,0.01631 -0.0908,0.0244 -0.0301,0.008 -0.0601,0.01586 -0.0906,0.02209 -0.0369,0.0074 -0.0743,0.0142 -0.112,0.0164 -0.0292,0.0013 -0.031,-0.04004 -0.002,-0.04132 z"
         id="path12115"
         style="opacity:1;fill:#000000;fill-opacity:0.98039216;stroke:none;stroke-width:5;stroke-linecap:round;stroke-miterlimit:4;stroke-dasharray:none;stroke-opacity:1" />
      <path
         inkscape:connector-curvature="0"
         d="m -322.21006,75.022545 c 0.026,-0.01814 0.0551,-0.03027 0.0835,-0.04384 0.0254,-0.01302 0.0522,-0.02259 0.0793,-0.03119 0.0296,-0.0096 0.0559,-0.02645 0.0836,-0.04024 0.0233,-0.01298 0.0495,-0.02114 0.072,-0.03525 0.0245,-0.01776 0.0535,-0.027 0.0797,-0.04179 0.0344,-0.01998 0.0704,-0.03721 0.10667,-0.05353 0.0322,-0.01214 0.0637,-0.02567 0.0958,-0.03791 0.003,-0.0015 0.006,-0.0036 0.009,-0.0051 0.0256,-0.01411 0.0456,0.02208 0.02,0.03618 v 0 c -0.004,0.0025 -0.009,0.005 -0.0141,0.0075 -0.0314,0.01193 -0.0622,0.02525 -0.0936,0.037 -0.0352,0.01585 -0.0701,0.03252 -0.10347,0.05191 -0.0259,0.01441 -0.0542,0.02396 -0.0786,0.04117 -0.024,0.01399 -0.0502,0.02397 -0.0749,0.03679 -0.0296,0.01466 -0.0577,0.03259 -0.0894,0.04259 -0.0253,0.0079 -0.0502,0.01698 -0.074,0.02914 -0.0267,0.01275 -0.0542,0.02405 -0.0786,0.04104 -0.0244,0.01606 -0.0472,-0.01839 -0.0227,-0.03452 z"
         id="path12117"
         style="opacity:1;fill:#000000;fill-opacity:0.98039216;stroke:none;stroke-width:5;stroke-linecap:round;stroke-miterlimit:4;stroke-dasharray:none;stroke-opacity:1" />
      <path
         inkscape:connector-curvature="0"
         d="m -322.05262,75.393209 c 0.0267,-0.0096 0.0537,-0.01771 0.0783,-0.03209 0.0197,-0.01326 0.041,-0.02373 0.0607,-0.03692 0.0231,-0.01518 0.0481,-0.02731 0.0708,-0.04281 0.0225,-0.01987 0.0494,-0.03328 0.0736,-0.05078 0.0322,-0.0218 0.0652,-0.04239 0.0981,-0.06289 0.0172,-0.01021 0.0319,-0.02374 0.0477,-0.03589 0.0232,-0.01783 0.0484,0.01495 0.0252,0.03276 v 0 c -0.0168,0.0129 -0.0327,0.02744 -0.0511,0.03825 -0.0322,0.02 -0.0644,0.04011 -0.0958,0.06131 -0.0247,0.01768 -0.0518,0.0316 -0.0747,0.05157 -0.023,0.01528 -0.0479,0.0281 -0.0713,0.04307 -0.0206,0.01327 -0.0421,0.02469 -0.0626,0.03807 -0.0278,0.01604 -0.0581,0.02602 -0.0884,0.03632 -0.0282,0.0076 -0.0389,-0.03237 -0.0107,-0.03993 z"
         id="path12119"
         style="opacity:1;fill:#000000;fill-opacity:0.98039216;stroke:none;stroke-width:5;stroke-linecap:round;stroke-miterlimit:4;stroke-dasharray:none;stroke-opacity:1" />
      <path
         inkscape:connector-curvature="0"
         d="m -321.89281,75.836598 c 0.0169,-0.0086 0.0348,-0.01419 0.0518,-0.02227 0.0143,-0.0068 0.028,-0.01578 0.0419,-0.02343 0.0207,-0.01456 0.0432,-0.02525 0.0657,-0.0366 0.021,-0.0093 0.0403,-0.02202 0.0592,-0.03515 0.0193,-0.01304 0.0375,-0.02805 0.0555,-0.04301 0.0129,-0.0091 0.006,-0.0048 0.0198,-0.01297 0.0251,-0.0149 0.0462,0.02063 0.021,0.03557 v 0 c -0.01,0.0057 -0.005,0.0028 -0.0142,0.0091 -0.0188,0.01571 -0.0381,0.0314 -0.0584,0.04524 -0.0206,0.01422 -0.0413,0.02791 -0.0641,0.03808 -0.022,0.01107 -0.0442,0.02177 -0.0645,0.03602 -0.0312,0.01707 -0.0623,0.03413 -0.0957,0.0468 -0.0265,0.01248 -0.0441,-0.02486 -0.0173,-0.03747 z"
         id="path12121"
         style="opacity:1;fill:#000000;fill-opacity:0.98039216;stroke:none;stroke-width:5;stroke-linecap:round;stroke-miterlimit:4;stroke-dasharray:none;stroke-opacity:1" />
      <path
         inkscape:connector-curvature="0"
         d="m -321.80911,76.319368 c 0.0281,-0.01374 0.0517,-0.03456 0.0781,-0.0512 0.0234,-0.0158 0.0448,-0.03406 0.0689,-0.04895 0.0277,-0.02216 0.0542,-0.04578 0.0813,-0.06869 0.0359,-0.02976 0.0698,-0.06187 0.10519,-0.0922 0.0363,-0.02881 0.0718,-0.05852 0.10797,-0.08734 0.0213,-0.01659 0.0432,-0.03259 0.0657,-0.04751 0.0244,-0.01615 0.0472,0.01839 0.0227,0.03452 v 0 c -0.0217,0.01419 -0.0424,0.02955 -0.0628,0.04536 -0.0358,0.02853 -0.071,0.05797 -0.10687,0.08643 -0.0356,0.03035 -0.0694,0.06257 -0.10538,0.09234 -0.0286,0.02421 -0.0565,0.04946 -0.0863,0.0723 -0.024,0.01472 -0.045,0.03334 -0.0685,0.04876 -0.0274,0.01717 -0.0517,0.03894 -0.081,0.05285 -0.0259,0.01356 -0.045,-0.02315 -0.0191,-0.03666 z"
         id="path12123"
         style="opacity:1;fill:#000000;fill-opacity:0.98039216;stroke:none;stroke-width:5;stroke-linecap:round;stroke-miterlimit:4;stroke-dasharray:none;stroke-opacity:1" />
      <path
         inkscape:connector-curvature="0"
         d="m -321.54781,76.591749 c 0.026,-0.01494 0.0504,-0.03224 0.076,-0.0479 0.0272,-0.01809 0.0535,-0.03821 0.0778,-0.05992 0.0288,-0.0259 0.0567,-0.05275 0.0851,-0.0791 0.0331,-0.0318 0.0663,-0.0634 0.0995,-0.09515 0.0109,-0.01246 0.0221,-0.02432 0.0339,-0.03579 0.0212,-0.02033 0.0497,0.0095 0.0288,0.02974 v 0 c -0.0121,0.01141 -0.0229,0.02363 -0.034,0.03587 -0.0333,0.0319 -0.0667,0.06363 -0.1,0.09561 -0.0286,0.02654 -0.0568,0.05359 -0.0858,0.07973 -0.0264,0.0232 -0.0544,0.04501 -0.0837,0.06425 -0.0264,0.01609 -0.0515,0.03403 -0.0784,0.04928 -0.0259,0.01346 -0.045,-0.02315 -0.0191,-0.03666 z"
         id="path12125"
         style="opacity:1;fill:#000000;fill-opacity:0.98039216;stroke:none;stroke-width:5;stroke-linecap:round;stroke-miterlimit:4;stroke-dasharray:none;stroke-opacity:1" />
      <path
         inkscape:connector-curvature="0"
         d="m -321.37671,76.905326 c 0.0197,-0.01025 0.0412,-0.01755 0.0603,-0.02891 0.0104,-0.0062 0.0199,-0.01392 0.0297,-0.02091 0.0485,-0.03425 0.0959,-0.07012 0.1441,-0.104818 0.0589,-0.04211 0.11525,-0.08768 0.17191,-0.132715 0.02,-0.0154 0.0384,-0.03235 0.0564,-0.05006 0.0208,-0.02053 0.0498,0.0089 0.029,0.02945 v 0 c -0.0191,0.0187 -0.0385,0.03675 -0.0596,0.05299 -0.0572,0.04545 -0.11406,0.09141 -0.17348,0.133901 -0.0484,0.03476 -0.0958,0.07066 -0.14435,0.104999 -0.007,0.0051 -0.027,0.01937 -0.035,0.02412 -0.0191,0.01133 -0.0407,0.01878 -0.0606,0.02904 -0.0262,0.01293 -0.0444,-0.02412 -0.0182,-0.03709 z"
         id="path12127"
         style="opacity:1;fill:#000000;fill-opacity:0.98039216;stroke:none;stroke-width:5;stroke-linecap:round;stroke-miterlimit:4;stroke-dasharray:none;stroke-opacity:1" />
      <path
         inkscape:connector-curvature="0"
         d="m -321.25679,77.277142 c 0.0404,-0.0077 0.0752,-0.02948 0.11149,-0.04752 0.0399,-0.01991 0.081,-0.03783 0.11996,-0.05945 0.0154,-0.01004 0.0325,-0.01731 0.0476,-0.02775 0.0125,-0.0086 0.0237,-0.01987 0.0354,-0.02947 0.026,-0.02085 0.05,-0.0442 0.0769,-0.064 0.0102,-0.0097 0.021,-0.01861 0.0307,-0.02875 0.0204,-0.02096 0.05,0.0078 0.0297,0.02881 v 0 c -0.0114,0.01164 -0.0238,0.02243 -0.036,0.03331 -0.0263,0.01916 -0.0495,0.04248 -0.0752,0.06265 -0.0132,0.0109 -0.0259,0.02305 -0.0401,0.03282 -0.0155,0.01067 -0.0332,0.01832 -0.0491,0.02858 -0.0396,0.02177 -0.0811,0.04021 -0.12156,0.06029 -0.0388,0.01918 -0.0761,0.04214 -0.11916,0.05042 -0.0282,0.0076 -0.0389,-0.03237 -0.0107,-0.03993 z"
         id="path12129"
         style="opacity:1;fill:#000000;fill-opacity:0.98039216;stroke:none;stroke-width:5;stroke-linecap:round;stroke-miterlimit:4;stroke-dasharray:none;stroke-opacity:1" />
      <path
         inkscape:connector-curvature="0"
         d="m -320.83854,77.599789 c 0.0257,-0.01924 0.0504,-0.03963 0.0762,-0.05879 0.0252,-0.0196 0.051,-0.0384 0.0756,-0.05884 0.0301,-0.02417 0.0592,-0.04939 0.0901,-0.07242 0.0246,-0.01708 0.0486,-0.03481 0.0725,-0.05303 0.0186,-0.01327 0.0373,-0.02666 0.0549,-0.04135 0.0225,-0.01867 0.0489,0.01317 0.0263,0.03184 v 0 c -0.0182,0.01491 -0.0371,0.02889 -0.0562,0.04243 -0.024,0.01821 -0.048,0.03614 -0.0728,0.0533 -0.0304,0.02253 -0.0589,0.04741 -0.0884,0.07107 -0.0252,0.02082 -0.0515,0.04019 -0.0773,0.06021 -0.0248,0.01842 -0.0485,0.03811 -0.0734,0.05654 -0.0219,0.0194 -0.0493,-0.01156 -0.0274,-0.03093 z"
         id="path12131"
         style="opacity:1;fill:#000000;fill-opacity:0.98039216;stroke:none;stroke-width:5;stroke-linecap:round;stroke-miterlimit:4;stroke-dasharray:none;stroke-opacity:1" />
      <path
         inkscape:connector-curvature="0"
         d="m -320.62989,77.895757 c 0.0305,-0.01201 0.0571,-0.03134 0.086,-0.04651 0.0299,-0.01598 0.0589,-0.03384 0.0854,-0.0549 0.0353,-0.02717 0.0679,-0.05741 0.10112,-0.08686 0.0314,-0.02849 0.0617,-0.05817 0.096,-0.08339 0.0194,-0.01245 0.0375,-0.0272 0.0552,-0.04218 0.0224,-0.01894 0.049,0.01256 0.0268,0.0315 v 0 c -0.0183,0.01558 -0.0372,0.03094 -0.0575,0.04402 -0.0334,0.02428 -0.0624,0.05356 -0.093,0.081 -0.0339,0.02996 -0.067,0.06078 -0.10298,0.0884 -0.0287,0.0224 -0.0595,0.04198 -0.0917,0.05902 -0.0304,0.01582 -0.0583,0.0364 -0.0906,0.04857 -0.0274,0.01033 -0.042,-0.02833 -0.0145,-0.03869 z"
         id="path12133"
         style="opacity:1;fill:#000000;fill-opacity:0.98039216;stroke:none;stroke-width:5;stroke-linecap:round;stroke-miterlimit:4;stroke-dasharray:none;stroke-opacity:1" />
      <path
         inkscape:connector-curvature="0"
         d="m -320.18033,78.125195 c 0.0293,-0.01769 0.0533,-0.04263 0.079,-0.06509 0.0236,-0.01957 0.0444,-0.0421 0.0674,-0.06241 0.021,-0.01566 0.0412,-0.03243 0.0623,-0.04809 0.0171,-0.01266 0.0337,-0.02655 0.0505,-0.03996 0.0108,-0.0089 0.0236,-0.01461 0.0355,-0.02163 0.0252,-0.01483 0.0462,0.02087 0.021,0.03563 v 0 c -0.0104,0.006 -0.0215,0.01103 -0.0308,0.01839 -0.0172,0.01361 -0.034,0.02781 -0.0516,0.0408 -0.0201,0.01492 -0.0394,0.03105 -0.0596,0.04588 -0.023,0.02033 -0.0438,0.04296 -0.0675,0.06252 -0.027,0.02364 -0.0524,0.04982 -0.0834,0.06848 -0.0244,0.01606 -0.0472,-0.01839 -0.0227,-0.03452 z"
         id="path12135"
         style="opacity:1;fill:#000000;fill-opacity:0.98039216;stroke:none;stroke-width:5;stroke-linecap:round;stroke-miterlimit:4;stroke-dasharray:none;stroke-opacity:1" />
      <path
         inkscape:connector-curvature="0"
         d="m -319.89165,78.372532 c 0.0262,-0.02122 0.0486,-0.04595 0.0708,-0.07116 0.0218,-0.01984 0.0394,-0.04256 0.0553,-0.06715 0.0185,-0.03029 0.0372,-0.06057 0.0536,-0.09209 0.009,-0.01702 0.005,-0.0087 0.0121,-0.02439 0.0118,-0.02671 0.0496,-0.01 0.0378,0.01674 v 0 c -0.008,0.01847 -0.004,0.0096 -0.0133,0.0268 -0.017,0.03263 -0.0362,0.06412 -0.0556,0.09549 -0.0171,0.02622 -0.0358,0.05078 -0.059,0.07198 -0.024,0.02732 -0.0486,0.05403 -0.077,0.07692 -0.0234,0.01749 -0.0482,-0.01559 -0.0247,-0.03312 z"
         id="path12137"
         style="opacity:1;fill:#000000;fill-opacity:0.98039216;stroke:none;stroke-width:5;stroke-linecap:round;stroke-miterlimit:4;stroke-dasharray:none;stroke-opacity:1" />
      <path
         inkscape:connector-curvature="0"
         d="m -319.58939,75.073746 c 0.0259,-0.02635 0.051,-0.05345 0.0751,-0.08143 0.0247,-0.02821 0.0445,-0.06026 0.0661,-0.09087 0.0117,-0.01454 0.0198,-0.03148 0.0294,-0.04747 0.007,-0.01198 0.0145,-0.02273 0.0198,-0.0356 0.002,-0.0036 0.003,-0.0069 0.004,-0.01031 0.0111,-0.02697 0.0494,-0.01107 0.0382,0.01587 v 0 c -0.002,0.0037 -0.003,0.0072 -0.004,0.0106 -0.0142,0.03202 -0.0346,0.06129 -0.0535,0.09064 -0.0224,0.03171 -0.0429,0.06486 -0.0686,0.09405 -0.0254,0.02935 -0.0517,0.05784 -0.0789,0.08533 -0.0219,0.0194 -0.0493,-0.01156 -0.0274,-0.03093 z"
         id="path12139"
         style="opacity:1;fill:#000000;fill-opacity:0.98039216;stroke:none;stroke-width:5;stroke-linecap:round;stroke-miterlimit:4;stroke-dasharray:none;stroke-opacity:1" />
      <path
         inkscape:connector-curvature="0"
         d="m -319.96057,75.086582 c 0.0257,-0.02252 0.0549,-0.04046 0.0835,-0.05891 0.0165,-0.01301 0.0344,-0.02341 0.0513,-0.03584 0.0201,-0.01613 0.0408,-0.03208 0.058,-0.05133 0.01,-0.01446 0.0238,-0.02486 0.0353,-0.03763 0.005,-0.0052 0.009,-0.01108 0.0125,-0.01654 0.016,-0.02205 0.0321,-0.0422 0.0523,-0.06073 0.0221,-0.01759 0.0422,-0.03763 0.0633,-0.05644 0.0166,-0.01377 0.0338,-0.02681 0.046,-0.04475 0.0125,-0.01659 0.0302,-0.02849 0.0475,-0.0396 0.0116,-0.0138 0.024,-0.02686 0.0351,-0.04105 0.0183,-0.02297 0.0506,0.0027 0.0323,0.02564 v 0 c -0.0139,0.01761 -0.0288,0.03508 -0.0453,0.05033 -0.0128,0.0081 -0.0262,0.01674 -0.0358,0.02851 -0.0146,0.02018 -0.0329,0.03655 -0.0523,0.0518 -0.021,0.01866 -0.0409,0.0385 -0.0628,0.056 -0.003,0.0018 -0.0147,0.01337 -0.0167,0.0155 -0.0115,0.01239 -0.0193,0.02738 -0.0307,0.03978 -0.0158,0.02077 -0.0339,0.03706 -0.0503,0.05708 -0.0194,0.02085 -0.0416,0.03923 -0.064,0.05671 -0.0176,0.01301 -0.0363,0.02388 -0.0535,0.03734 -0.0268,0.01733 -0.0543,0.03409 -0.0784,0.05508 -0.0219,0.01941 -0.0493,-0.01153 -0.0274,-0.03093 z"
         id="path12141"
         style="opacity:1;fill:#000000;fill-opacity:0.98039216;stroke:none;stroke-width:5;stroke-linecap:round;stroke-miterlimit:4;stroke-dasharray:none;stroke-opacity:1" />
      <path
         inkscape:connector-curvature="0"
         d="m -320.18451,74.96782 c 0.0226,-0.02284 0.0456,-0.04438 0.0731,-0.06108 0.0171,-0.0139 0.0347,-0.02725 0.0516,-0.04139 0.02,-0.01715 0.0433,-0.02934 0.0635,-0.04624 0.0208,-0.01951 0.0464,-0.03291 0.0688,-0.05018 0.003,-0.0029 0.006,-0.005 0.009,-0.0079 0.006,-0.006 0.0113,-0.01297 0.0173,-0.01914 0.0113,-0.0113 0.0235,-0.02135 0.0349,-0.03247 0.0207,-0.02083 0.0404,-0.04257 0.0608,-0.06371 0.023,-0.02465 0.0485,-0.04701 0.0759,-0.06669 0.0288,-0.02168 0.0575,-0.04338 0.0867,-0.06453 0.0222,-0.02217 0.0498,-0.0377 0.0732,-0.05846 0.0195,-0.0182 0.041,-0.03384 0.0607,-0.05169 0.0222,-0.01938 0.0391,-0.04335 0.0577,-0.06604 0.0181,-0.02376 0.0415,-0.04271 0.0624,-0.0638 0.0151,-0.01706 0.0361,-0.02597 0.0539,-0.03966 0.007,-0.0049 0.0135,-0.01097 0.0202,-0.01644 0.0226,-0.01848 0.0488,0.01353 0.0261,0.03203 v 0 c -0.007,0.0056 -0.0134,0.01209 -0.0212,0.01718 -0.0163,0.01255 -0.0355,0.02099 -0.0498,0.03607 -0.0201,0.02009 -0.0423,0.03822 -0.0597,0.0608 -0.0198,0.02426 -0.0382,0.04981 -0.0619,0.07055 -0.0199,0.01784 -0.0414,0.03389 -0.0612,0.0521 -0.0245,0.02118 -0.0526,0.03826 -0.0761,0.06079 -0.0292,0.02119 -0.0581,0.04296 -0.0869,0.06467 -0.0255,0.01811 -0.0489,0.03898 -0.0702,0.06177 -0.0206,0.0214 -0.0407,0.04356 -0.0617,0.06466 -0.0108,0.01056 -0.0228,0.02021 -0.0335,0.03103 -0.007,0.0073 -0.0134,0.01523 -0.0206,0.02227 -0.003,0.0034 -0.008,0.0064 -0.0111,0.0095 -0.0222,0.01654 -0.0467,0.03025 -0.0673,0.04902 -0.0204,0.01687 -0.0432,0.02953 -0.0636,0.0463 -0.0187,0.01535 -0.0375,0.03033 -0.0567,0.04497 -0.0244,0.01441 -0.0441,0.034 -0.0641,0.05383 -0.02,0.02143 -0.0502,-0.0068 -0.0303,-0.02817 z"
         id="path12143"
         style="opacity:1;fill:#000000;fill-opacity:0.98039216;stroke:none;stroke-width:5;stroke-linecap:round;stroke-miterlimit:4;stroke-dasharray:none;stroke-opacity:1" />
      <path
         inkscape:connector-curvature="0"
         d="m -319.90887,74.466296 c 0.0224,-0.01655 0.0465,-0.03053 0.0676,-0.04864 0.0171,-0.01499 0.0376,-0.0245 0.0564,-0.03709 0.0182,-0.01408 0.034,-0.03119 0.051,-0.04669 0.0161,-0.01364 0.031,-0.02846 0.046,-0.04319 0.0157,-0.01084 0.0244,-0.02652 0.0352,-0.0417 0.009,-0.01445 0.0252,-0.02257 0.0365,-0.03521 0.005,-0.0052 0.008,-0.01081 0.0127,-0.01608 0.0102,-0.01308 0.0245,-0.0217 0.0353,-0.03393 0.005,-0.0053 0.009,-0.01097 0.0134,-0.01628 0.017,-0.01617 0.0354,-0.03088 0.053,-0.04654 0.01,-0.0096 0.0228,-0.01491 0.0334,-0.02384 0.003,-0.0029 0.005,-0.0066 0.009,-0.0099 0.0126,-0.01426 0.0284,-0.02459 0.0397,-0.04013 0.0135,-0.01731 0.0285,-0.03294 0.0448,-0.04739 0.0145,-0.01123 0.0224,-0.02718 0.0342,-0.04076 0.012,-0.01056 0.0237,-0.02166 0.0345,-0.03341 0.02,-0.02137 0.0502,0.0069 0.0303,0.02822 v 0 c -0.0107,0.01124 -0.0218,0.02248 -0.0337,0.03246 -0.0131,0.01449 -0.0217,0.0327 -0.038,0.04454 -0.0145,0.01247 -0.0273,0.02615 -0.039,0.04112 -0.0126,0.01643 -0.0284,0.02907 -0.0428,0.04383 -0.003,0.0036 -0.0119,0.01262 -0.015,0.01535 -0.009,0.0078 -0.0205,0.01252 -0.0294,0.02068 -0.0161,0.01446 -0.033,0.02824 -0.0492,0.0427 -0.006,0.0062 -0.0101,0.01264 -0.0155,0.01859 -0.0102,0.01111 -0.023,0.01943 -0.0327,0.03105 -0.005,0.0065 -0.0104,0.01338 -0.0161,0.01959 -0.01,0.01069 -0.0228,0.0178 -0.0315,0.02941 -0.0122,0.01682 -0.0226,0.03489 -0.0399,0.0472 -0.0154,0.01501 -0.0307,0.03025 -0.0471,0.04421 -0.0185,0.01671 -0.0354,0.03559 -0.0557,0.05038 -0.0174,0.01169 -0.0366,0.02068 -0.0527,0.03428 -0.0237,0.01984 -0.0499,0.03612 -0.0752,0.05377 -0.0259,0.01356 -0.045,-0.02314 -0.0191,-0.03665 z"
         id="path12145"
         style="opacity:1;fill:#000000;fill-opacity:0.98039216;stroke:none;stroke-width:5;stroke-linecap:round;stroke-miterlimit:4;stroke-dasharray:none;stroke-opacity:1" />
      <path
         inkscape:connector-curvature="0"
         d="m -319.53493,73.836008 c 0.0295,-0.01081 0.0594,-0.01994 0.0874,-0.03447 0.0267,-0.01367 0.0533,-0.02708 0.0778,-0.04431 0.0241,-0.01474 0.0457,-0.03211 0.0661,-0.05145 0.0197,-0.01532 0.0385,-0.03194 0.0577,-0.04821 0.019,-0.016 0.0387,-0.0309 0.0578,-0.04648 0.0249,-0.01618 0.0487,-0.03346 0.0711,-0.05295 0.0219,-0.02051 0.0479,-0.03514 0.0717,-0.0528 0.019,-0.01676 0.0407,-0.02944 0.0617,-0.04314 0.005,-0.0063 0.002,-0.0028 0.009,-0.01081 0.0197,-0.02144 0.0502,0.0066 0.0303,0.02807 v 0 c -0.0102,0.01101 -0.005,0.0052 -0.0173,0.01744 -0.0206,0.01318 -0.0414,0.02553 -0.0597,0.04175 -0.0231,0.01677 -0.0479,0.03128 -0.0691,0.05073 -0.0228,0.01961 -0.0467,0.03772 -0.0721,0.0538 -0.0189,0.01531 -0.0385,0.03005 -0.0572,0.04589 -0.0186,0.01577 -0.0367,0.03196 -0.056,0.04674 -0.0219,0.02071 -0.0451,0.03944 -0.0709,0.0553 -0.0261,0.01822 -0.0542,0.03276 -0.0825,0.04717 -0.0295,0.01515 -0.0606,0.02525 -0.0917,0.03641 -0.0274,0.01033 -0.042,-0.02833 -0.0145,-0.0387 z"
         id="path12147"
         style="opacity:1;fill:#000000;fill-opacity:0.98039216;stroke:none;stroke-width:5;stroke-linecap:round;stroke-miterlimit:4;stroke-dasharray:none;stroke-opacity:1" />
      <path
         inkscape:connector-curvature="0"
         d="m -318.48449,73.160812 c 0.0278,-0.0149 0.0539,-0.03263 0.0818,-0.0473 0.0232,-0.01169 0.0451,-0.02401 0.0657,-0.0398 0.0214,-0.01411 0.0424,-0.02832 0.0638,-0.04243 0.0107,-0.0081 0.005,-0.0041 0.0164,-0.01226 0.0235,-0.01747 0.0481,0.0157 0.0247,0.03315 v 0 c -0.0117,0.0086 -0.005,0.0041 -0.0183,0.0136 -0.0205,0.01347 -0.0408,0.02732 -0.0615,0.04076 -0.0225,0.01708 -0.0465,0.03087 -0.0717,0.04358 -0.0294,0.01522 -0.0563,0.03448 -0.0859,0.04915 -0.0272,0.0106 -0.0423,-0.02787 -0.0155,-0.0384 z"
         id="path12149"
         style="opacity:1;fill:#000000;fill-opacity:0.98039216;stroke:none;stroke-width:5;stroke-linecap:round;stroke-miterlimit:4;stroke-dasharray:none;stroke-opacity:1" />
      <path
         inkscape:connector-curvature="0"
         d="m -318.10956,73.429318 c 0.0296,-0.0085 0.0602,-0.01314 0.0873,-0.02866 0.0236,-0.0143 0.0434,-0.03267 0.0641,-0.05059 0.0247,-0.01521 0.0462,-0.03473 0.0697,-0.05179 0.0201,-0.01501 0.0399,-0.03012 0.0593,-0.04593 0.008,-0.0084 0.0195,-0.01318 0.0291,-0.01974 0.004,-0.0031 0.008,-0.0071 0.0125,-0.0105 0.0227,-0.01843 0.0487,0.01368 0.0261,0.03209 v 0 c -0.0135,0.01097 -0.0279,0.01991 -0.0418,0.03034 -0.0201,0.01617 -0.0405,0.03185 -0.0611,0.0473 -0.0225,0.01617 -0.0429,0.03528 -0.0668,0.04958 -0.0229,0.01964 -0.0449,0.0399 -0.0711,0.05544 -0.0303,0.01649 -0.0634,0.02392 -0.0966,0.03241 -0.0282,0.0076 -0.0389,-0.03237 -0.0107,-0.03993 z"
         id="path12151"
         style="opacity:1;fill:#000000;fill-opacity:0.98039216;stroke:none;stroke-width:5;stroke-linecap:round;stroke-miterlimit:4;stroke-dasharray:none;stroke-opacity:1" />
      <path
         inkscape:connector-curvature="0"
         d="m -317.71096,73.654717 c 0.0266,-0.0183 0.0545,-0.03496 0.0788,-0.05621 0.0218,-0.01874 0.0444,-0.03482 0.066,-0.05362 0.0181,-0.01732 0.0417,-0.02732 0.0613,-0.04253 0.0173,-0.01426 0.0365,-0.02656 0.0561,-0.03755 0.0256,-0.01421 0.0456,0.02193 0.02,0.03614 v 0 c -0.0181,0.01003 -0.0355,0.02139 -0.0514,0.03452 -0.0192,0.01396 -0.0408,0.02471 -0.0588,0.04057 -0.0216,0.01869 -0.0444,0.03518 -0.0662,0.05372 -0.0272,0.02323 -0.0576,0.04249 -0.0875,0.06198 -0.0263,0.01293 -0.0446,-0.02409 -0.0182,-0.03709 z"
         id="path12153"
         style="opacity:1;fill:#000000;fill-opacity:0.98039216;stroke:none;stroke-width:5;stroke-linecap:round;stroke-miterlimit:4;stroke-dasharray:none;stroke-opacity:1" />
      <path
         inkscape:connector-curvature="0"
         d="m -317.39684,73.948817 c 0.0302,-0.0064 0.0586,-0.01593 0.0855,-0.03108 0.0211,-0.01321 0.0445,-0.02197 0.0646,-0.03675 0.003,-0.002 0.005,-0.0039 0.008,-0.0063 0.004,-0.004 0.007,-0.009 0.0101,-0.01328 0.008,-0.0096 0.016,-0.01693 0.0259,-0.02436 0.021,-0.01297 0.0427,-0.02362 0.0656,-0.03248 0.0114,-0.0044 0.0231,-0.0078 0.035,-0.01133 0.028,-0.0083 0.0399,0.03113 0.0107,0.03991 v 0 c -0.0106,0.0031 -0.0216,0.0063 -0.032,0.01053 -0.0194,0.0074 -0.0381,0.01663 -0.0561,0.02727 -0.0173,0.0123 -0.0267,0.03162 -0.044,0.04405 -0.0216,0.01572 -0.0461,0.02583 -0.0689,0.03953 -0.03,0.01651 -0.0614,0.02771 -0.0949,0.03485 -0.0282,0.0076 -0.0389,-0.03237 -0.0107,-0.03993 z"
         id="path12155"
         style="opacity:1;fill:#000000;fill-opacity:0.98039216;stroke:none;stroke-width:5;stroke-linecap:round;stroke-miterlimit:4;stroke-dasharray:none;stroke-opacity:1" />
      <path
         inkscape:connector-curvature="0"
         d="m -317.17174,74.153859 c 0.0315,-0.01309 0.0622,-0.02785 0.0929,-0.04246 0.0143,-0.0081 0.007,-0.0041 0.0217,-0.01223 0.0254,-0.01438 0.0458,0.02158 0.0203,0.036 v 0 c -0.0155,0.0087 -0.007,0.0041 -0.0243,0.01365 -0.0331,0.01569 -0.0659,0.03175 -0.1,0.04503 -0.0282,0.0076 -0.0389,-0.03237 -0.0107,-0.03993 z"
         id="path12157"
         style="opacity:1;fill:#000000;fill-opacity:0.98039216;stroke:none;stroke-width:5;stroke-linecap:round;stroke-miterlimit:4;stroke-dasharray:none;stroke-opacity:1" />
      <path
         inkscape:connector-curvature="0"
         d="m -317.2603,74.554225 c 0.0293,-0.0092 0.0609,-0.0125 0.088,-0.02751 0.0208,-0.01437 0.0464,-0.02396 0.0648,-0.04159 0.002,-0.0023 0.005,-0.0045 0.007,-0.0069 0.0216,-0.01953 0.0494,0.01115 0.0277,0.03071 v 0 c -0.002,0.0023 -0.005,0.0047 -0.008,0.0073 -0.0221,0.01872 -0.0482,0.0322 -0.073,0.04718 -0.005,0.0028 -0.0107,0.006 -0.0164,0.0083 -0.0255,0.01076 -0.0539,0.01388 -0.08,0.02257 -0.0282,0.0076 -0.0389,-0.03237 -0.0107,-0.03993 z"
         id="path12159"
         style="opacity:1;fill:#000000;fill-opacity:0.98039216;stroke:none;stroke-width:5;stroke-linecap:round;stroke-miterlimit:4;stroke-dasharray:none;stroke-opacity:1" />
      <path
         inkscape:connector-curvature="0"
         d="m -320.25862,74.216987 c 0.0271,-0.01431 0.0498,-0.03473 0.0742,-0.05295 0.0196,-0.01384 0.0411,-0.02481 0.0587,-0.04122 0.0154,-0.01333 0.0287,-0.02866 0.0426,-0.04349 0.0201,-0.02134 0.0501,0.007 0.0301,0.02831 v 0 c -0.0147,0.01563 -0.0288,0.0318 -0.045,0.04584 -0.019,0.01689 -0.0407,0.02985 -0.0618,0.04373 -0.0254,0.01882 -0.049,0.04013 -0.0772,0.05497 -0.0249,0.01536 -0.0466,-0.01981 -0.0217,-0.03517 z"
         id="path12165"
         style="opacity:1;fill:#000000;fill-opacity:0.98039216;stroke:none;stroke-width:5;stroke-linecap:round;stroke-miterlimit:4;stroke-dasharray:none;stroke-opacity:1" />
      <path
         inkscape:connector-curvature="0"
         d="m -320.37381,73.803988 c 0.0277,-0.01373 0.0559,-0.02583 0.085,-0.03638 0.014,-0.0059 0.0292,-0.0086 0.0435,-0.01383 0.0112,-0.0041 0.022,-0.01097 0.0327,-0.01654 0.0145,-0.0074 0.007,-0.0036 0.0214,-0.01132 0.0256,-0.01421 0.0456,0.02196 0.02,0.03616 v 0 c -0.015,0.0084 -0.007,0.0044 -0.022,0.0117 -0.0262,0.01364 -0.0526,0.025 -0.0812,0.03256 -0.0289,0.01043 -0.0568,0.02279 -0.0845,0.03621 -0.0274,0.01033 -0.042,-0.02833 -0.0145,-0.03869 z"
         id="path12169"
         style="opacity:1;fill:#000000;fill-opacity:0.98039216;stroke:none;stroke-width:5;stroke-linecap:round;stroke-miterlimit:4;stroke-dasharray:none;stroke-opacity:1" />
      <path
         inkscape:connector-curvature="0"
         d="m -320.56951,73.616748 c 0.0279,-0.01597 0.057,-0.03044 0.0833,-0.04896 0.0204,-0.01519 0.0391,-0.03166 0.0615,-0.04397 0.009,-0.0064 0.0155,-0.01348 0.0229,-0.02081 0.0208,-0.02055 0.0499,0.0088 0.029,0.02942 v 0 c -0.0102,0.01 -0.0202,0.01983 -0.0321,0.0277 -0.0211,0.01134 -0.0382,0.02787 -0.0577,0.04164 -0.0293,0.02012 -0.0609,0.037 -0.0922,0.05366 -0.0274,0.01033 -0.042,-0.02833 -0.0145,-0.03869 z"
         id="path12171"
         style="opacity:1;fill:#000000;fill-opacity:0.98039216;stroke:none;stroke-width:5;stroke-linecap:round;stroke-miterlimit:4;stroke-dasharray:none;stroke-opacity:1" />
      <path
         inkscape:connector-curvature="0"
         d="m -320.79061,73.394433 c 0.0246,-0.0064 0.0481,-0.0159 0.072,-0.02435 0.0276,-0.0099 0.0414,0.02919 0.0136,0.03903 v 0 c -0.025,0.0089 -0.0496,0.01866 -0.075,0.02537 -0.0282,0.0076 -0.0389,-0.03237 -0.0107,-0.03993 z"
         id="path12173"
         style="opacity:1;fill:#000000;fill-opacity:0.98039216;stroke:none;stroke-width:5;stroke-linecap:round;stroke-miterlimit:4;stroke-dasharray:none;stroke-opacity:1" />
    </g>
  </g>
</svg>
